<?xml version="1.0" encoding="UTF-8"?>
<svg width="635px" height="750px" viewBox="0 0 635 750" xmlns="http://www.w3.org/2000/svg" xmlns:xlink="http://www.w3.org/1999/xlink" version="1.1">
 <!-- Generated by Pixelmator Pro 1.1.2 -->
 <g id="new-group">
  <path id="path" d="M378.417 145.668 C370.365 145.71 362.806 146.099 357.41 146.878 303.177 154.709 239.737 192.064 191.316 244.67 169.197 268.698 147.397 298.203 130.522 326.948 122.029 341.413 106.328 372.615 99.76 388.084 82.891 427.815 69.595 474.015 63.858 512.828 60.505 535.516 60.47 581.9 63.783 613.421 66.746 641.611 72.626 664.438 75.199 657.74 75.516 656.913 76.144 646.873 76.598 635.424 76.964 626.163 77.423 618.925 78.115 612.691 78.179 612.16 78.248 611.627 78.315 611.106 78.495 609.62 78.677 608.169 78.89 606.781 79.217 604.674 79.587 602.665 79.982 600.697 79.985 600.685 79.986 600.672 79.989 600.66 81.117 595.284 82.607 590.261 84.622 584.554 91.759 564.339 104.354 546.37 120.936 532.291 120.989 532.246 121.039 532.198 121.092 532.154 122.215 531.203 123.374 530.291 124.533 529.377 125.378 528.717 126.224 528.058 127.087 527.417 127.777 526.9 128.471 526.386 129.173 525.882 142.131 516.658 157.089 509.597 173.474 505.052 177.874 503.87 182.481 502.83 187.406 501.92 193.508 500.857 200.544 500.054 208.008 499.523 208.139 499.514 208.27 499.507 208.401 499.498 221.832 498.824 239.45 498.839 249.524 499.617 249.943 499.658 250.39 499.691 250.798 499.736 252.299 499.872 253.67 500.021 254.701 500.197 254.838 500.218 254.977 500.239 255.113 500.26 267.552 502.53 282.531 508.321 295.804 515.767 297.584 516.765 299.304 517.809 301.012 518.862 302.291 519.66 303.556 520.48 304.809 521.314 305.468 521.752 306.128 522.187 306.77 522.631 308.04 523.504 309.284 524.407 310.523 525.315 311.39 525.957 312.27 526.591 313.115 527.243 313.632 527.639 314.133 528.051 314.645 528.453 337.839 546.796 352.219 568.705 355.748 591.156 355.77 591.291 355.789 591.426 355.811 591.562 356.046 593.118 356.242 594.674 356.373 596.235 357.724 612.387 355.558 625.047 348.972 639.487 342.182 654.377 331.853 666.791 319.516 675.955 317.561 677.407 315.545 678.769 313.496 680.055 313.16 680.263 312.816 680.462 312.478 680.667 310.988 681.574 309.47 682.42 307.938 683.238 307.113 683.677 306.288 684.111 305.446 684.529 297.706 688.356 289.507 691.055 281.104 692.442 277.307 692.851 273.091 693.032 267.784 693.035 262.933 693.038 259.861 692.964 257.249 692.81 254.209 692.396 251.176 691.828 248.169 691.044 239.281 688.726 232.519 685.977 225.031 681.278 224.623 681.017 224.234 680.781 223.814 680.504 222.976 679.96 222.11 679.353 221.247 678.757 220.463 678.215 219.668 677.666 218.83 677.066 215.743 674.824 212.459 672.272 208.776 669.241 203.521 664.915 198.758 661.378 198.185 661.378 196.514 661.378 196.453 667.696 198.06 674.957 201.545 690.707 206.94 700.32 218.293 711.013 232.618 724.505 252.342 733.381 278.381 738.046 286.818 739.557 308.144 739.828 318.579 738.557 337.287 736.279 358.98 729.284 373.99 720.698 391.7 710.567 416.493 691.877 429.85 678.582 458.416 650.148 495.725 588.054 518.127 531.667 533.332 493.394 544.644 446.347 549.207 402.393 550.91 385.991 550.639 340.689 548.745 325.625 541.468 267.729 522.623 223.8 491.268 191.634 467.572 167.325 444.339 154.083 415.043 148.189 406.628 146.495 391.837 145.596 378.417 145.668 Z" fill="#ffffff" fill-opacity="1" stroke="#000000" stroke-width="9.119" stroke-opacity="1" stroke-linejoin="round"/>
  <path id="path-1" d="M296.56 275.883 C258.49 245.167 252.463 228.396 193.961 239.908 193.961 239.908 195.429 213.446 206.516 182.031 L6.489 176.466 C4.094 172.3 6.626 166.436 12.146 163.371 L274.135 17.874 C282.748 12.984 282.749 12.983 292.873 13.79 L621.583 4.431 C628.057 5.295 631.684 12.712 617.479 19.389 L454.148 109.822 C471.103 128.466 483.802 155.001 493.407 190.12 386.793 174.091 319.807 243.632 296.56 275.883 Z M550.644 149.233 C550.463 149.248 549.721 148.748 549.586 148.669 548.544 148.053 547.542 147.357 547.072 146.49 542.467 138.018 538.065 129.007 537.21 122.176 536.218 121.984 535.283 121.606 534.453 121.071 534.438 128.368 541.433 141.236 544.011 145.977 544.403 146.702 544.306 147.818 544.415 148.981 L544.41 148.987 544.592 150.083 C544.484 150.177 543.65 149.614 543.506 149.529 542.463 148.913 541.462 148.217 540.991 147.35 534.952 136.239 529.263 124.202 531.465 117.37 531.348 117.054 531.25 116.725 531.175 116.387 530.916 115.212 530.951 114.038 531.232 112.941 530.516 112.064 529.99 111.015 529.73 109.84 529.269 107.749 529.742 105.665 530.872 104 530.793 103.786 530.726 103.565 530.675 103.336 530.359 101.9 530.679 100.467 531.453 99.321 L504.733 82.729 C511.381 78.005 527.921 87.144 534.009 97.292 534.264 97.195 534.53 97.113 534.806 97.052 537.711 96.411 540.575 98.186 541.199 101.014 541.236 101.184 541.263 101.354 541.284 101.522 542.001 101.921 542.65 102.431 543.206 103.035 543.418 103.102 543.625 103.197 543.821 103.322 544.721 103.898 545.093 104.901 544.805 105.767 544.88 105.997 544.946 106.231 544.999 106.471 545.258 107.646 545.222 108.819 544.942 109.916 545.658 110.793 546.185 111.844 546.444 113.018 546.453 113.063 546.46 113.107 546.469 113.151 552.833 116.45 558.889 127.146 564.112 137.615 564.553 138.499 564.543 139.705 564.442 140.897 564.429 141.061 564.406 142.058 564.266 142.088 L563.462 141.313 563.46 141.304 C562.562 140.539 561.583 139.964 561.216 139.226 558.805 134.394 552.253 121.26 546.215 117.032 546.06 117.484 545.864 117.919 545.629 118.333 551.034 122.809 556.159 132.005 560.663 141.033 561.104 141.917 561.094 143.122 560.993 144.315 560.979 144.479 560.956 145.476 560.817 145.506 L560.003 144.733 560.01 144.722 C559.113 143.957 558.134 143.382 557.767 142.644 555.896 138.895 551.532 130.152 546.85 124.446 549.742 131.286 553.641 138.028 555.598 141.41 556.113 142.301 555.951 143.695 556.067 145.14 L556.065 145.139 556.278 146.506 C556.129 146.627 555.012 145.946 554.818 145.845 553.418 145.105 552.077 144.264 551.46 143.197 547.353 136.099 543.381 128.686 540.954 122.001 540.857 122.029 540.76 122.056 540.662 122.08 541.62 129.533 547.722 140.759 550.091 145.116 550.483 145.841 550.386 146.958 550.495 148.12 L550.491 148.127 550.673 149.223 C550.666 149.229 550.656 149.232 550.644 149.233 Z" fill="#000000" fill-opacity="1" stroke="none"/>
  <g id="new-group-1">
   <g id="new-group-2">
    <path id="path-2" d="M125.717 381.533 C131.491 381.656 137.311 381.505 142.941 380.047 138.734 395.154 134.415 410.229 130.183 425.329 130.688 424.97 131.169 424.576 131.635 424.165 136.858 419.412 141.906 414.459 147.206 409.794 149.656 407.72 152.178 405.414 155.4 404.763 156.873 404.396 158.612 404.484 159.765 405.604 162.436 408.021 162.166 412.803 159.479 415.108 158.07 416.438 155.939 416.636 154.152 416.141 152.654 415.764 151.892 414.244 150.595 413.522 148.533 413.45 146.763 414.82 145.213 416.053 141.963 418.817 138.829 421.723 135.564 424.468 135.487 424.905 135.917 425.275 136.063 425.676 139.331 431.621 142.559 437.59 145.825 443.537 146.983 445.487 148.181 447.548 150.081 448.839 151.121 449.594 152.595 449.414 153.532 448.572 155.239 447.073 156.52 445.099 157.348 442.969 158.339 442.964 159.332 442.961 160.325 442.972 159.014 446.386 157.501 449.792 155.146 452.602 153.515 454.669 151.13 456.444 148.42 456.366 146.121 456.458 144.008 455.136 142.505 453.455 140.069 450.627 138.389 447.248 136.59 443.989 134.017 439.334 131.476 434.66 128.91 430.001 126.611 438.26 124.472 446.565 122.135 454.813 119.442 454.8 116.749 454.812 114.057 454.806 119.383 435.532 124.622 416.233 129.928 396.953 130.744 393.788 131.935 390.642 131.875 387.323 131.917 386.109 131.139 384.875 129.932 384.631 128.3 384.259 126.607 384.516 124.951 384.453 125.211 383.481 125.468 382.508 125.717 381.533 Z" fill="#000000" fill-opacity="1" stroke="none"/>
    <defs>
     <text id="string" transform="matrix(1.0 0.0 0.0 1.0 64.24926592079 382.66828277343)">
      <tspan x="98.9472959187375" y="70.0" font-family="Times-Italic, Times" font-size="93.106" text-decoration="none" fill="#000000">l</tspan>
      <tspan x="124.815215221246" y="70.0" font-family="Times-Italic, Times" font-size="93.106" text-decoration="none" fill="#000000">a</tspan>
      <tspan x="171.368377551242" y="70.0" font-family="Times-Italic, Times" font-size="93.106" text-decoration="none" fill="#000000">s</tspan>
      <tspan x="207.601649403789" y="70.0" font-family="Times-Italic, Times" font-size="93.106" text-decoration="none" fill="#000000">s</tspan>
      <tspan x="243.834921256335" y="70.0" font-family="Times-Italic, Times" font-size="93.106" text-decoration="none" fill="#000000">m</tspan>
      <tspan x="311.073326613821" y="70.0" font-family="Times-Italic, Times" font-size="93.106" text-decoration="none" fill="#000000">a</tspan>
      <tspan x="357.626488943818" y="70.0" font-family="Times-Italic, Times" font-size="93.106" text-decoration="none" fill="#000000">t</tspan>
      <tspan x="383.494408246326" y="70.0" font-family="Times-Italic, Times" font-size="93.106" text-decoration="none" fill="#000000">e</tspan>
      <tspan x="424.819432228716" y="70.0" font-family="Times-Italic, Times" font-size="93.106" text-decoration="none" fill="#000000">s</tspan>
     </text>
    </defs>
    <use id="lassmates" xlink:href="#string"/>
   </g>
   <g id="new-group-3">
    <path id="path-3" d="M227.393 293.095 C232.299 290.31 237.867 288.715 243.474 288.479 246.428 288.625 249.399 289.098 252.176 290.171 257.653 292.264 262.185 296.545 265.017 301.726 268.156 307.024 269.545 313.186 270.203 319.281 271.653 339.463 264.328 359.733 251.832 375.247 246.916 380.256 240.862 384.512 233.917 385.816 228.17 386.655 221.948 385.4 217.327 381.701 214.465 379.493 213.307 375.659 213.547 372.112 216.088 375.773 220.244 378.309 224.686 378.412 228.708 378.607 232.703 376.733 235.41 373.74 239.954 368.734 240.41 360.289 236.145 354.963 234.194 352.651 231.924 350.578 229.286 349.116 226.637 347.521 223.577 346.826 220.56 346.413 214.979 346.049 209.194 347.081 204.28 349.882 199.516 352.635 196.016 357.539 194.925 363.014 193.804 367.265 194.212 371.712 194.655 376.031 192.827 371.092 192.094 365.841 191.699 360.605 L191.699 356.786 C192.342 337.644 200.156 318.969 212.728 304.818 217.049 300.251 221.868 296.068 227.393 293.095 Z" fill="#000000" fill-opacity="1" stroke="none"/>
    <path id="path-4" d="M292.429 296.653 C299.015 296.793 305.653 296.621 312.074 294.958 307.276 312.188 302.35 329.382 297.523 346.604 298.099 346.194 298.648 345.746 299.179 345.277 305.137 339.856 310.893 334.206 316.938 328.886 319.732 326.521 322.609 323.89 326.284 323.148 327.964 322.729 329.948 322.829 331.263 324.106 334.309 326.863 334.001 332.318 330.936 334.947 329.329 336.464 326.899 336.69 324.861 336.125 323.152 335.694 322.283 333.961 320.804 333.137 318.453 333.055 316.433 334.618 314.665 336.025 310.958 339.177 307.384 342.491 303.66 345.622 303.573 346.12 304.063 346.543 304.23 347 307.957 353.781 311.638 360.589 315.364 367.371 316.684 369.595 318.051 371.946 320.217 373.419 321.403 374.28 323.085 374.074 324.153 373.114 326.1 371.404 327.561 369.152 328.505 366.724 329.636 366.718 330.768 366.715 331.902 366.727 330.406 370.62 328.681 374.505 325.995 377.71 324.134 380.068 321.414 382.092 318.323 382.004 315.701 382.109 313.291 380.6 311.577 378.683 308.799 375.458 306.882 371.603 304.831 367.887 301.896 362.578 298.998 357.247 296.071 351.933 293.449 361.352 291.009 370.824 288.344 380.232 285.272 380.218 282.201 380.23 279.13 380.224 285.205 358.241 291.18 336.229 297.232 314.24 298.163 310.63 299.521 307.042 299.453 303.256 299.501 301.872 298.613 300.465 297.236 300.187 295.375 299.762 293.445 300.055 291.556 299.983 291.853 298.875 292.145 297.765 292.429 296.653 Z" fill="#000000" fill-opacity="1" stroke="none"/>
    <path id="path-5" d="M416.724 296.668 C423.271 296.748 429.891 296.712 436.262 294.952 432.438 309.185 428.331 323.341 424.511 337.575 427.789 333.064 431.333 328.527 436.183 325.686 439.8 323.509 444.17 322.371 448.343 323.21 451.324 323.789 454.086 325.77 455.363 328.618 456.41 330.838 456.508 333.377 456.236 335.787 455.602 342.269 452.948 348.26 450.859 354.342 449.044 359.445 447.11 364.505 445.445 369.662 444.874 371.694 444.068 373.848 444.639 375.974 445.112 377.499 446.997 377.642 448.242 377.116 449.537 376.455 450.709 375.499 451.553 374.289 453.375 371.887 454.938 369.227 455.68 366.26 456.902 366.262 458.125 366.264 459.35 366.254 458.241 371.331 455.669 376.183 451.614 379.42 448.632 381.834 444.467 382.692 440.835 381.478 437.713 380.387 435.741 377.063 435.647 373.786 435.427 370.335 436.532 367.005 437.491 363.747 439.334 358.089 441.532 352.561 443.553 346.969 445.498 341.867 447.532 336.6 447.537 331.044 447.562 329.476 446.483 327.983 444.947 327.693 441.275 327.04 437.588 328.637 434.748 330.931 430.733 334.172 427.785 338.579 425.363 343.131 421.515 349.813 419.159 357.244 417.164 364.683 415.704 369.864 414.276 375.053 412.787 380.225 409.67 380.226 406.552 380.225 403.435 380.225 407.81 364.371 412.093 348.49 416.446 332.629 418.723 324.118 421.15 315.648 423.327 307.11 423.68 305.326 424.498 303.475 423.848 301.66 423.697 300.696 422.74 300.228 421.882 300.134 419.849 299.816 417.782 300.033 415.735 299.979 416.092 298.885 416.413 297.778 416.724 296.668 Z" fill="#000000" fill-opacity="1" stroke="none"/>
    <path id="path-6" d="M361.763 382.021 C358.63 381.992 355.515 381.339 352.812 379.663 347.743 376.564 344.699 370.835 343.831 364.981 342.672 356.982 343.928 348.604 347.548 341.394 350.67 335.266 355.039 329.536 361.032 326.12 363.9 324.516 367.068 323.469 370.323 323.114 375.134 322.511 380.342 323.31 384.286 326.351 388.616 329.73 391.197 335.045 391.931 340.493 392.882 347.491 391.958 354.755 389.366 361.304 387.474 365.952 384.667 370.185 381.247 373.804 377.26 377.77 372.199 380.751 366.644 381.606 365.05 381.877 363.404 382.035 361.763 382.021 Z M362.144 378.812 C362.645 378.806 363.142 378.765 363.628 378.692 367.556 378.082 370.948 375.47 373.234 372.239 376.196 368.131 378.12 363.361 379.74 358.567 382.005 351.602 383.181 344.209 382.671 336.868 382.31 333.723 381.618 330.303 379.24 328.063 376.962 325.921 373.532 325.842 370.693 326.638 367.703 327.509 365.255 329.652 363.31 332.056 360.716 335.346 358.903 339.192 357.361 343.087 354.26 350.681 352.573 358.948 352.943 367.188 353.237 370.499 353.725 374.187 356.21 376.595 357.749 378.206 359.973 378.838 362.144 378.812 Z" fill="#000000" fill-opacity="1" stroke="none"/>
    <path id="path-7" d="M511.584 382.031 C509.565 382.022 507.554 381.283 506.196 379.704 504.127 377.193 503.591 373.808 503.393 370.634 500.191 375.49 495.686 379.809 490.037 381.384 486.005 382.478 481.331 382.312 477.879 379.685 473.665 376.416 471.595 371.088 470.795 365.898 469.897 359.157 470.557 352.192 472.784 345.775 474.982 339.811 478.107 334.082 482.547 329.548 486.391 325.624 491.621 323.059 497.1 322.931 500.652 322.735 504.321 324.016 506.803 326.665 509.444 329.261 510.988 332.931 511.043 336.671 512.073 332.674 513.291 328.73 514.418 324.761 517.546 324.775 520.674 324.758 523.803 324.769 520.182 337.841 516.471 350.887 512.842 363.956 511.859 367.491 511.242 371.183 511.537 374.865 511.671 376.117 512.161 377.725 513.522 378.06 515.528 378.39 516.876 376.495 518.043 375.144 520.16 372.104 522.084 368.82 523.002 365.177 524.107 365.154 525.215 365.145 526.325 365.154 525.13 369.295 523.346 373.321 520.662 376.687 519.015 378.852 516.882 380.76 514.284 381.599 513.422 381.887 512.502 382.035 511.584 382.031 Z M488.241 377.404 C489.495 377.39 490.755 377.151 491.911 376.757 496.246 375.262 499.151 371.312 501.266 367.37 505.899 358.413 508.582 348.186 507.696 338.019 507.335 334.892 506.572 331.518 504.188 329.324 502.212 327.516 499.348 327.244 496.846 327.775 493.639 328.524 490.998 330.822 489.094 333.478 485.531 338.478 483.533 344.429 481.905 350.326 480.492 355.947 479.668 361.771 479.932 367.581 480.204 370.708 480.857 374.363 483.666 376.173 485.023 377.063 486.627 377.421 488.241 377.404 Z" fill="#000000" fill-opacity="1" stroke="none"/>
   </g>
  </g>
 </g>
</svg>
